<svg xmlns="http://www.w3.org/2000/svg" width="400" height="440" viewBox="0 0 400 440" role="img">
  <defs>
    <filter id="rShadow" x="-50%" y="-50%" width="200%" height="200%">
      <feDropShadow dx="0" dy="6" stdDeviation="10" flood-color="#613e18" flood-opacity="0.16"/>
    </filter>
    <path id="rSpark" d="M0,-9 C1.6,-2.2 2.2,-1.6 9,0 C2.2,1.6 1.6,2.2 0,9 C-1.6,2.2 -2.2,1.6 -9,0 C-2.2,-1.6 -1.6,-2.2 0,-9 Z"/>
  </defs>

  <rect x="8" y="8" width="384" height="424" rx="28" fill="#fbf7ee"/>

  <!-- receipt -->
  <g filter="url(#rShadow)">
    <path d="M116,44 h168 a16,16 0 0 1 16,16 v280 l-16.67,12 -16.66,-12 -16.67,12 -16.67,-12 -16.67,12 -16.66,-12 -16.67,12 -16.67,-12 -16.67,12 -16.66,-12 -16.67,12 -16.67,-12 v-280 a16,16 0 0 1 16,-16 Z" fill="#ffffff" stroke="#f5e9cc" stroke-width="1.5"/>
  </g>
  <circle cx="200" cy="100" r="24" fill="#cf9026"/>
  <rect x="191" y="88" width="18" height="24" rx="3" fill="#ffffff"/>
  <g stroke="#cf9026" stroke-width="2" stroke-linecap="round">
    <line x1="195" y1="95" x2="205" y2="95"/>
    <line x1="195" y1="101" x2="205" y2="101"/>
    <line x1="195" y1="107" x2="201" y2="107"/>
  </g>

  <g>
    <rect x="128" y="146" width="76" height="8" rx="4" fill="#cdd5d1"/>
    <rect x="236" y="146" width="36" height="8" rx="4" fill="#a8b5af"/>
    <rect x="128" y="172" width="64" height="8" rx="4" fill="#cdd5d1"/>
    <rect x="236" y="172" width="36" height="8" rx="4" fill="#a8b5af"/>
    <rect x="128" y="198" width="82" height="8" rx="4" fill="#cdd5d1"/>
    <rect x="236" y="198" width="36" height="8" rx="4" fill="#a8b5af"/>
    <rect x="128" y="224" width="58" height="8" rx="4" fill="#cdd5d1"/>
    <rect x="236" y="224" width="36" height="8" rx="4" fill="#a8b5af"/>
  </g>
  <line x1="128" y1="252" x2="272" y2="252" stroke="#cdd5d1" stroke-width="2" stroke-dasharray="6 6"/>
  <rect x="128" y="272" width="58" height="11" rx="5.5" fill="#23292b"/>
  <rect x="222" y="268" width="50" height="18" rx="9" fill="#cf9026"/>

  <!-- barcode -->
  <g fill="#23292b">
    <rect x="128" y="300" width="3" height="22"/>
    <rect x="134" y="300" width="2" height="22"/>
    <rect x="139" y="300" width="4" height="22"/>
    <rect x="146" y="300" width="2" height="22"/>
    <rect x="151" y="300" width="3" height="22"/>
    <rect x="157" y="300" width="2" height="22"/>
    <rect x="162" y="300" width="5" height="22"/>
    <rect x="170" y="300" width="2" height="22"/>
    <rect x="175" y="300" width="3" height="22"/>
    <rect x="181" y="300" width="4" height="22"/>
    <rect x="188" y="300" width="2" height="22"/>
    <rect x="193" y="300" width="3" height="22"/>
    <rect x="199" y="300" width="2" height="22"/>
    <rect x="205" y="300" width="4" height="22"/>
    <rect x="212" y="300" width="3" height="22"/>
    <rect x="218" y="300" width="2" height="22"/>
    <rect x="223" y="300" width="4" height="22"/>
    <rect x="230" y="300" width="3" height="22"/>
    <rect x="236" y="300" width="2" height="22"/>
    <rect x="241" y="300" width="3" height="22"/>
    <rect x="247" y="300" width="4" height="22"/>
    <rect x="254" y="300" width="2" height="22"/>
    <rect x="259" y="300" width="3" height="22"/>
    <rect x="265" y="300" width="2" height="22"/>
    <rect x="270" y="300" width="2" height="22"/>
  </g>

  <!-- paid badge -->
  <g filter="url(#rShadow)">
    <circle cx="298" cy="330" r="40" fill="#cf9026" stroke="#ffffff" stroke-width="6"/>
  </g>
  <path d="M280,330 l12,12 24,-26" fill="none" stroke="#ffffff" stroke-width="6" stroke-linecap="round" stroke-linejoin="round"/>

  <use href="#rSpark" transform="translate(330,66)" fill="#e5a63f"/>
  <use href="#rSpark" transform="translate(70,362) scale(0.75)" fill="#e0b85c"/>
</svg>
