<svg xmlns="http://www.w3.org/2000/svg" width="960" height="720" viewBox="0 0 960 720" role="img">
  <defs>
    <linearGradient id="areaFill" x1="0" y1="0" x2="0" y2="1">
      <stop offset="0" stop-color="#e5a63f" stop-opacity="0.32"/>
      <stop offset="1" stop-color="#e5a63f" stop-opacity="0"/>
    </linearGradient>
    <linearGradient id="goldCard" x1="0" y1="0" x2="1" y2="1">
      <stop offset="0" stop-color="#e5a63f"/>
      <stop offset="1" stop-color="#b3761c"/>
    </linearGradient>
    <filter id="shadowLg" x="-40%" y="-40%" width="180%" height="180%">
      <feDropShadow dx="0" dy="14" stdDeviation="20" flood-color="#613e18" flood-opacity="0.16"/>
    </filter>
    <filter id="shadowSm" x="-50%" y="-50%" width="200%" height="200%">
      <feDropShadow dx="0" dy="8" stdDeviation="12" flood-color="#613e18" flood-opacity="0.18"/>
    </filter>
    <path id="spark" d="M0,-9 C1.6,-2.2 2.2,-1.6 9,0 C2.2,1.6 1.6,2.2 0,9 C-1.6,2.2 -2.2,1.6 -9,0 C-2.2,-1.6 -1.6,-2.2 0,-9 Z"/>
  </defs>

  <!-- backdrop -->
  <rect width="960" height="720" fill="#fbf7ee"/>
  <ellipse cx="470" cy="390" rx="400" ry="310" fill="#f5e9cc" opacity="0.55"/>
  <circle cx="868" cy="196" r="120" fill="none" stroke="#ecd396" stroke-width="2"/>
  <circle cx="868" cy="196" r="88" fill="none" stroke="#ecd396" stroke-width="2" opacity="0.5"/>
  <g fill="#ecd396">
    <g transform="translate(64,84)">
      <circle r="3.2"/><circle cx="24" r="3.2"/><circle cx="48" r="3.2"/><circle cx="72" r="3.2"/><circle cx="96" r="3.2"/>
      <circle cy="24" r="3.2"/><circle cx="24" cy="24" r="3.2"/><circle cx="48" cy="24" r="3.2"/><circle cx="72" cy="24" r="3.2"/><circle cx="96" cy="24" r="3.2"/>
      <circle cy="48" r="3.2"/><circle cx="24" cy="48" r="3.2"/><circle cx="48" cy="48" r="3.2"/><circle cx="72" cy="48" r="3.2"/><circle cx="96" cy="48" r="3.2"/>
      <circle cy="72" r="3.2"/><circle cx="24" cy="72" r="3.2"/><circle cx="48" cy="72" r="3.2"/><circle cx="72" cy="72" r="3.2"/><circle cx="96" cy="72" r="3.2"/>
    </g>
    <g transform="translate(724,496)">
      <circle r="3.2"/><circle cx="24" r="3.2"/><circle cx="48" r="3.2"/><circle cx="72" r="3.2"/><circle cx="96" r="3.2"/>
      <circle cy="24" r="3.2"/><circle cx="24" cy="24" r="3.2"/><circle cx="48" cy="24" r="3.2"/><circle cx="72" cy="24" r="3.2"/><circle cx="96" cy="24" r="3.2"/>
      <circle cy="48" r="3.2"/><circle cx="24" cy="48" r="3.2"/><circle cx="48" cy="48" r="3.2"/><circle cx="72" cy="48" r="3.2"/><circle cx="96" cy="48" r="3.2"/>
    </g>
  </g>

  <!-- dashed connectors -->
  <path d="M742,180 C700,230 680,240 664,262" fill="none" stroke="#e0b85c" stroke-width="2.5" stroke-linecap="round" stroke-dasharray="1 9"/>
  <path d="M172,560 C210,600 260,620 330,626" fill="none" stroke="#e0b85c" stroke-width="2.5" stroke-linecap="round" stroke-dasharray="1 9"/>

  <!-- main dashboard card -->
  <g filter="url(#shadowLg)">
    <rect x="170" y="150" width="540" height="430" rx="24" fill="#ffffff" stroke="#f5e9cc" stroke-width="1.5"/>
  </g>
  <!-- browser bar -->
  <circle cx="206" cy="186" r="5" fill="#ecd396"/>
  <circle cx="228" cy="186" r="5" fill="#e0b85c"/>
  <circle cx="250" cy="186" r="5" fill="#cf9026"/>
  <rect x="286" y="177" width="190" height="18" rx="9" fill="#f5f7f6"/>
  <line x1="170" y1="208" x2="710" y2="208" stroke="#e6eae8" stroke-width="1.5"/>

  <!-- header row -->
  <rect x="200" y="230" width="40" height="40" rx="12" fill="#cf9026"/>
  <g stroke="#ffffff" stroke-width="2.6" stroke-linecap="round">
    <line x1="210" y1="243" x2="230" y2="243"/>
    <line x1="210" y1="250" x2="230" y2="250"/>
    <line x1="210" y1="257" x2="222" y2="257"/>
  </g>
  <rect x="254" y="234" width="140" height="13" rx="6.5" fill="#23292b"/>
  <rect x="254" y="255" width="90" height="9" rx="4.5" fill="#cdd5d1"/>
  <rect x="560" y="232" width="120" height="34" rx="17" fill="#fbf7ee" stroke="#f5e9cc" stroke-width="1.5"/>
  <circle cx="584" cy="249" r="5" fill="#cf9026"/>
  <rect x="598" y="245" width="64" height="8" rx="4" fill="#ecd396"/>

  <!-- KPI row -->
  <rect x="200" y="292" width="64" height="8" rx="4" fill="#cdd5d1"/>
  <rect x="200" y="306" width="100" height="14" rx="7" fill="#23292b"/>
  <rect x="310" y="304" width="48" height="18" rx="9" fill="#f5e9cc"/>
  <path d="M320,316 l5,-6 5,6" fill="none" stroke="#8f5c18" stroke-width="2.4" stroke-linecap="round" stroke-linejoin="round"/>
  <rect x="334" y="310" width="16" height="4.5" rx="2.25" fill="#8f5c18"/>
  <rect x="430" y="292" width="64" height="8" rx="4" fill="#cdd5d1"/>
  <rect x="430" y="306" width="100" height="14" rx="7" fill="#23292b"/>
  <rect x="540" y="304" width="48" height="18" rx="9" fill="#e6eae8"/>
  <rect x="550" y="310" width="28" height="4.5" rx="2.25" fill="#61726a"/>

  <!-- area chart -->
  <g stroke="#e6eae8" stroke-width="1.2">
    <line x1="200" y1="362" x2="680" y2="362"/>
    <line x1="200" y1="392" x2="680" y2="392"/>
    <line x1="200" y1="422" x2="680" y2="422"/>
    <line x1="200" y1="452" x2="680" y2="452"/>
  </g>
  <path d="M200,445 C235,445 235,420 270,420 C305,420 305,432 340,432 C375,432 375,395 410,395 C445,395 445,405 480,405 C515,405 515,370 550,370 C585,370 585,378 620,378 C650,378 650,352 680,352 L680,466 L200,466 Z" fill="url(#areaFill)"/>
  <path d="M200,445 C235,445 235,420 270,420 C305,420 305,432 340,432 C375,432 375,395 410,395 C445,395 445,405 480,405 C515,405 515,370 550,370 C585,370 585,378 620,378 C650,378 650,352 680,352" fill="none" stroke="#cf9026" stroke-width="3.5" stroke-linecap="round"/>
  <circle cx="340" cy="432" r="5" fill="#ffffff" stroke="#cf9026" stroke-width="3"/>
  <circle cx="480" cy="405" r="5" fill="#ffffff" stroke="#cf9026" stroke-width="3"/>
  <circle cx="550" cy="370" r="5" fill="#ffffff" stroke="#cf9026" stroke-width="3"/>
  <circle cx="620" cy="378" r="11" fill="#cf9026" opacity="0.22"/>
  <circle cx="620" cy="378" r="5.5" fill="#ffffff" stroke="#cf9026" stroke-width="3"/>
  <!-- tooltip -->
  <g filter="url(#shadowSm)">
    <path d="M620,375 l-7,-9 h-25 a10,10 0 0 0 -10,-10 v-20 a10,10 0 0 0 10,-10 h64 a10,10 0 0 0 10,10 v20 a10,10 0 0 0 -10,10 h-25 Z" fill="#121716"/>
  </g>
  <rect x="590" y="336" width="34" height="7" rx="3.5" fill="#e5a63f"/>
  <rect x="590" y="349" width="52" height="7" rx="3.5" fill="#ffffff" opacity="0.85"/>

  <!-- bottom row: bars + donut -->
  <g>
    <rect x="200" y="524" width="22" height="36" rx="7" fill="#ecd396"/>
    <rect x="230" y="508" width="22" height="52" rx="7" fill="#ecd396"/>
    <rect x="260" y="532" width="22" height="28" rx="7" fill="#e0b85c"/>
    <rect x="290" y="516" width="22" height="44" rx="7" fill="#ecd396"/>
    <rect x="320" y="496" width="22" height="64" rx="7" fill="#cf9026"/>
    <rect x="350" y="520" width="22" height="40" rx="7" fill="#ecd396"/>
    <rect x="380" y="504" width="22" height="56" rx="7" fill="#e0b85c"/>
    <line x1="200" y1="560" x2="402" y2="560" stroke="#e6eae8" stroke-width="1.5"/>
  </g>
  <g transform="rotate(-90 560 524)">
    <circle cx="560" cy="524" r="34" fill="none" stroke="#cf9026" stroke-width="16" stroke-dasharray="117.5 96.1"/>
    <circle cx="560" cy="524" r="34" fill="none" stroke="#e0b85c" stroke-width="16" stroke-dasharray="53.4 160.2" stroke-dashoffset="-117.5"/>
    <circle cx="560" cy="524" r="34" fill="none" stroke="#e6eae8" stroke-width="16" stroke-dasharray="42.7 170.9" stroke-dashoffset="-170.9"/>
  </g>
  <g>
    <circle cx="624" cy="500" r="4.5" fill="#cf9026"/><rect x="636" y="496" width="44" height="8" rx="4" fill="#cdd5d1"/>
    <circle cx="624" cy="524" r="4.5" fill="#e0b85c"/><rect x="636" y="520" width="34" height="8" rx="4" fill="#cdd5d1"/>
    <circle cx="624" cy="548" r="4.5" fill="#cdd5d1"/><rect x="636" y="544" width="38" height="8" rx="4" fill="#cdd5d1"/>
  </g>

  <!-- floating: invoice approved -->
  <g transform="rotate(2 750 132)">
    <g filter="url(#shadowSm)">
      <rect x="640" y="90" width="220" height="84" rx="18" fill="#ffffff" stroke="#f5e9cc" stroke-width="1.5"/>
    </g>
    <circle cx="678" cy="132" r="20" fill="#cf9026"/>
    <path d="M669,132 l6,6 12,-13" fill="none" stroke="#ffffff" stroke-width="3.6" stroke-linecap="round" stroke-linejoin="round"/>
    <rect x="710" y="114" width="104" height="11" rx="5.5" fill="#23292b"/>
    <rect x="710" y="134" width="66" height="8" rx="4" fill="#cdd5d1"/>
    <rect x="786" y="130" width="36" height="16" rx="8" fill="#f5e9cc"/>
    <path d="M795,138 l4,4 8,-9" fill="none" stroke="#8f5c18" stroke-width="2.2" stroke-linecap="round" stroke-linejoin="round"/>
  </g>

  <!-- floating: gold payment card -->
  <g transform="translate(52,306) rotate(-8)">
    <g filter="url(#shadowSm)">
      <rect width="196" height="122" rx="16" fill="url(#goldCard)"/>
    </g>
    <circle cx="196" cy="0" r="70" fill="#ffffff" opacity="0.12"/>
    <circle cx="10" cy="122" r="46" fill="#ffffff" opacity="0.10"/>
    <rect x="20" y="22" width="32" height="24" rx="5" fill="#f5e9cc"/>
    <path d="M20,30 h32 M20,38 h32 M36,22 v24" stroke="#b3761c" stroke-width="1.6"/>
    <path d="M158,30 a12,12 0 0 1 0,17 M166,24 a20,20 0 0 1 0,29" fill="none" stroke="#ffffff" stroke-width="2.6" stroke-linecap="round" opacity="0.9"/>
    <rect x="20" y="78" width="76" height="9" rx="4.5" fill="#ffffff" opacity="0.9"/>
    <rect x="20" y="95" width="44" height="8" rx="4" fill="#ffffff" opacity="0.6"/>
    <circle cx="156" cy="90" r="13" fill="#ffffff" opacity="0.55"/>
    <circle cx="172" cy="90" r="13" fill="#ffffff" opacity="0.35"/>
  </g>

  <!-- floating: coin stack -->
  <g transform="translate(118,548)">
    <g filter="url(#shadowSm)">
      <rect x="0" y="58" width="92" height="22" rx="11" fill="#b3761c"/>
    </g>
    <ellipse cx="46" cy="58" rx="46" ry="13" fill="#e5a63f"/>
    <ellipse cx="46" cy="58" rx="32" ry="8" fill="none" stroke="#b3761c" stroke-width="2" opacity="0.55"/>
    <rect x="6" y="30" width="80" height="20" rx="10" fill="#b3761c"/>
    <ellipse cx="46" cy="30" rx="40" ry="11" fill="#e5a63f"/>
    <ellipse cx="46" cy="30" rx="27" ry="6.5" fill="none" stroke="#b3761c" stroke-width="2" opacity="0.55"/>
    <circle cx="106" cy="18" r="26" fill="#e5a63f" stroke="#b3761c" stroke-width="3"/>
    <circle cx="106" cy="18" r="17" fill="none" stroke="#b3761c" stroke-width="2" opacity="0.6"/>
    <rect x="97" y="15.5" width="18" height="5" rx="2.5" fill="#8f5c18"/>
  </g>

  <!-- floating: progress ring chip -->
  <g filter="url(#shadowSm)">
    <circle cx="846" cy="430" r="46" fill="#ffffff" stroke="#f5e9cc" stroke-width="1.5"/>
  </g>
  <circle cx="846" cy="430" r="30" fill="none" stroke="#f5e9cc" stroke-width="10"/>
  <circle cx="846" cy="430" r="30" fill="none" stroke="#cf9026" stroke-width="10" stroke-linecap="round" stroke-dasharray="141.4 47.1" transform="rotate(-90 846 430)"/>
  <path d="M837,430 l6,6 12,-13" fill="none" stroke="#cf9026" stroke-width="3.6" stroke-linecap="round" stroke-linejoin="round"/>

  <!-- sparkles -->
  <use href="#spark" transform="translate(618,64)" fill="#e5a63f"/>
  <use href="#spark" transform="translate(906,420) scale(0.7)" fill="#e0b85c"/>
  <use href="#spark" transform="translate(96,236) scale(0.8)" fill="#e0b85c"/>
</svg>
