<svg xmlns="http://www.w3.org/2000/svg" width="960" height="960" viewBox="0 0 960 960" role="img">
  <defs>
    <filter id="wShadowLg" x="-40%" y="-40%" width="180%" height="180%">
      <feDropShadow dx="0" dy="14" stdDeviation="20" flood-color="#613e18" flood-opacity="0.16"/>
    </filter>
    <filter id="wShadowSm" x="-50%" y="-50%" width="200%" height="200%">
      <feDropShadow dx="0" dy="8" stdDeviation="12" flood-color="#613e18" flood-opacity="0.18"/>
    </filter>
    <path id="wSpark" d="M0,-9 C1.6,-2.2 2.2,-1.6 9,0 C2.2,1.6 1.6,2.2 0,9 C-1.6,2.2 -2.2,1.6 -9,0 C-2.2,-1.6 -1.6,-2.2 0,-9 Z"/>
  </defs>

  <!-- backdrop -->
  <rect width="960" height="960" fill="#fbf7ee"/>
  <ellipse cx="480" cy="580" rx="430" ry="350" fill="#f5e9cc" opacity="0.55"/>
  <circle cx="120" cy="170" r="92" fill="none" stroke="#ecd396" stroke-width="2"/>
  <circle cx="120" cy="170" r="64" fill="none" stroke="#ecd396" stroke-width="2" opacity="0.5"/>
  <g fill="#ecd396" transform="translate(742,96)">
    <circle r="3.2"/><circle cx="26" r="3.2"/><circle cx="52" r="3.2"/><circle cx="78" r="3.2"/><circle cx="104" r="3.2"/>
    <circle cy="26" r="3.2"/><circle cx="26" cy="26" r="3.2"/><circle cx="52" cy="26" r="3.2"/><circle cx="78" cy="26" r="3.2"/><circle cx="104" cy="26" r="3.2"/>
    <circle cy="52" r="3.2"/><circle cx="26" cy="52" r="3.2"/><circle cx="52" cy="52" r="3.2"/><circle cx="78" cy="52" r="3.2"/><circle cx="104" cy="52" r="3.2"/>
    <circle cy="78" r="3.2"/><circle cx="26" cy="78" r="3.2"/><circle cx="52" cy="78" r="3.2"/><circle cx="78" cy="78" r="3.2"/><circle cx="104" cy="78" r="3.2"/>
  </g>

  <!-- dashed connectors -->
  <path d="M700,382 C680,420 668,440 660,470" fill="none" stroke="#e0b85c" stroke-width="2.5" stroke-linecap="round" stroke-dasharray="1 9"/>
  <path d="M236,560 C258,590 272,606 288,624" fill="none" stroke="#e0b85c" stroke-width="2.5" stroke-linecap="round" stroke-dasharray="1 9"/>

  <!-- clipboard -->
  <g filter="url(#wShadowLg)">
    <rect x="250" y="250" width="460" height="630" rx="28" fill="#ffffff" stroke="#f5e9cc" stroke-width="1.5"/>
  </g>
  <g filter="url(#wShadowSm)">
    <rect x="410" y="222" width="140" height="58" rx="18" fill="#cf9026"/>
  </g>
  <rect x="450" y="238" width="60" height="16" rx="8" fill="#fbf7ee"/>

  <!-- title + progress -->
  <rect x="300" y="322" width="190" height="15" rx="7.5" fill="#23292b"/>
  <rect x="300" y="348" width="130" height="9" rx="4.5" fill="#cdd5d1"/>
  <rect x="580" y="318" width="80" height="30" rx="15" fill="#f5e9cc"/>
  <rect x="598" y="329" width="44" height="8" rx="4" fill="#b3761c"/>
  <rect x="300" y="390" width="360" height="12" rx="6" fill="#f5e9cc"/>
  <rect x="300" y="390" width="272" height="12" rx="6" fill="#cf9026"/>
  <circle cx="572" cy="396" r="9" fill="#ffffff" stroke="#cf9026" stroke-width="3.5"/>

  <!-- checklist rows -->
  <g>
    <rect x="290" y="430" width="380" height="84" rx="20" fill="#fbf7ee"/>
    <circle cx="334" cy="472" r="18" fill="#cf9026"/>
    <path d="M326,472 l6,6 13,-14" fill="none" stroke="#ffffff" stroke-width="3.4" stroke-linecap="round" stroke-linejoin="round"/>
    <rect x="368" y="456" width="180" height="11" rx="5.5" fill="#353e3a"/>
    <rect x="368" y="476" width="120" height="8" rx="4" fill="#cdd5d1"/>
    <rect x="596" y="462" width="48" height="20" rx="10" fill="#f5e9cc"/>
    <rect x="608" y="469.5" width="24" height="5" rx="2.5" fill="#b3761c"/>
  </g>
  <g>
    <rect x="290" y="528" width="380" height="84" rx="20" fill="#fbf7ee"/>
    <circle cx="334" cy="570" r="18" fill="#cf9026"/>
    <path d="M326,570 l6,6 13,-14" fill="none" stroke="#ffffff" stroke-width="3.4" stroke-linecap="round" stroke-linejoin="round"/>
    <rect x="368" y="554" width="150" height="11" rx="5.5" fill="#353e3a"/>
    <rect x="368" y="574" width="132" height="8" rx="4" fill="#cdd5d1"/>
    <rect x="596" y="560" width="48" height="20" rx="10" fill="#f5e9cc"/>
    <rect x="608" y="567.5" width="24" height="5" rx="2.5" fill="#b3761c"/>
  </g>
  <g>
    <rect x="290" y="626" width="380" height="84" rx="20" fill="#fbf7ee"/>
    <circle cx="334" cy="668" r="18" fill="#cf9026"/>
    <path d="M326,668 l6,6 13,-14" fill="none" stroke="#ffffff" stroke-width="3.4" stroke-linecap="round" stroke-linejoin="round"/>
    <rect x="368" y="652" width="196" height="11" rx="5.5" fill="#353e3a"/>
    <rect x="368" y="672" width="104" height="8" rx="4" fill="#cdd5d1"/>
    <rect x="596" y="658" width="48" height="20" rx="10" fill="#f5e9cc"/>
    <rect x="608" y="665.5" width="24" height="5" rx="2.5" fill="#b3761c"/>
  </g>
  <g>
    <rect x="290" y="724" width="380" height="84" rx="20" fill="#fbf7ee"/>
    <circle cx="334" cy="766" r="18" fill="#ffffff" stroke="#f5e9cc" stroke-width="3.5"/>
    <circle cx="334" cy="766" r="18" fill="none" stroke="#cf9026" stroke-width="3.5" stroke-linecap="round" stroke-dasharray="62.2 50.9" transform="rotate(-90 334 766)"/>
    <rect x="368" y="750" width="164" height="11" rx="5.5" fill="#7c8d85"/>
    <rect x="368" y="770" width="116" height="8" rx="4" fill="#cdd5d1"/>
    <rect x="596" y="756" width="48" height="20" rx="10" fill="#e6eae8"/>
    <rect x="608" y="763.5" width="24" height="5" rx="2.5" fill="#7c8d85"/>
  </g>

  <!-- ring stat card -->
  <g filter="url(#wShadowSm)">
    <circle cx="772" cy="292" r="84" fill="#ffffff" stroke="#f5e9cc" stroke-width="1.5"/>
  </g>
  <circle cx="772" cy="292" r="56" fill="none" stroke="#f5e9cc" stroke-width="14"/>
  <circle cx="772" cy="292" r="56" fill="none" stroke="#cf9026" stroke-width="14" stroke-linecap="round" stroke-dasharray="299.1 52.7" transform="rotate(-90 772 292)"/>
  <path d="M757,292 l10,10 20,-22" fill="none" stroke="#cf9026" stroke-width="5.5" stroke-linecap="round" stroke-linejoin="round"/>

  <!-- shield chip -->
  <g filter="url(#wShadowSm)">
    <rect x="132" y="430" width="104" height="104" rx="26" fill="#ffffff" stroke="#f5e9cc" stroke-width="1.5"/>
  </g>
  <path d="M184,454 l24,10 v17 c0,15 -10,25 -24,30 c-14,-5 -24,-15 -24,-30 v-17 Z" fill="#cf9026"/>
  <path d="M173,484 l8,8 15,-16" fill="none" stroke="#ffffff" stroke-width="3.6" stroke-linecap="round" stroke-linejoin="round"/>

  <!-- calendar card -->
  <g transform="translate(0,-36)">
  <g filter="url(#wShadowSm)">
    <rect x="120" y="690" width="230" height="196" rx="22" fill="#ffffff" stroke="#f5e9cc" stroke-width="1.5"/>
  </g>
  <path d="M142,690 h186 a22,22 0 0 1 22,22 v28 h-230 v-28 a22,22 0 0 1 22,-22 Z" fill="#cf9026"/>
  <rect x="168" y="676" width="10" height="26" rx="5" fill="#8f5c18"/>
  <rect x="292" y="676" width="10" height="26" rx="5" fill="#8f5c18"/>
  <g>
    <rect x="140" y="754" width="16" height="16" rx="5" fill="#f5e9cc"/>
    <rect x="178" y="754" width="16" height="16" rx="5" fill="#f5e9cc"/>
    <rect x="216" y="754" width="16" height="16" rx="5" fill="#f5e9cc"/>
    <rect x="254" y="754" width="16" height="16" rx="5" fill="#f5e9cc"/>
    <rect x="292" y="754" width="16" height="16" rx="5" fill="#e6eae8"/>
    <rect x="140" y="788" width="16" height="16" rx="5" fill="#f5e9cc"/>
    <rect x="178" y="788" width="16" height="16" rx="5" fill="#e6eae8"/>
    <rect x="216" y="788" width="16" height="16" rx="5" fill="#e6eae8"/>
    <rect x="292" y="788" width="16" height="16" rx="5" fill="#e6eae8"/>
    <rect x="140" y="822" width="16" height="16" rx="5" fill="#e6eae8"/>
    <rect x="178" y="822" width="16" height="16" rx="5" fill="#e6eae8"/>
    <rect x="216" y="822" width="16" height="16" rx="5" fill="#e6eae8"/>
    <rect x="254" y="822" width="16" height="16" rx="5" fill="#e6eae8"/>
    <rect x="140" y="856" width="16" height="16" rx="5" fill="#e6eae8"/>
    <rect x="178" y="856" width="16" height="16" rx="5" fill="#e6eae8"/>
  </g>
  <circle cx="262" cy="796" r="14" fill="#cf9026"/>
  <path d="M256,796 l4.5,4.5 9,-10" fill="none" stroke="#ffffff" stroke-width="2.8" stroke-linecap="round" stroke-linejoin="round"/>
  </g>

  <!-- clock chip -->
  <g filter="url(#wShadowSm)">
    <circle cx="806" cy="764" r="44" fill="#ffffff" stroke="#f5e9cc" stroke-width="1.5"/>
  </g>
  <circle cx="806" cy="764" r="28" fill="none" stroke="#f5e9cc" stroke-width="7"/>
  <line x1="806" y1="764" x2="806" y2="747" stroke="#23292b" stroke-width="3.5" stroke-linecap="round"/>
  <line x1="806" y1="764" x2="819" y2="764" stroke="#cf9026" stroke-width="3.5" stroke-linecap="round"/>
  <circle cx="806" cy="764" r="3.5" fill="#cf9026"/>

  <!-- sparkles -->
  <use href="#wSpark" transform="translate(636,158)" fill="#e5a63f"/>
  <use href="#wSpark" transform="translate(84,626) scale(0.75)" fill="#e0b85c"/>
  <use href="#wSpark" transform="translate(898,566) scale(0.85)" fill="#e0b85c"/>
</svg>
